<?xml version="1.0" standalone="no"?>
<!DOCTYPE svg PUBLIC "-//W3C//DTD SVG 20010904//EN"
 "http://www.w3.org/TR/2001/REC-SVG-20010904/DTD/svg10.dtd">
<svg version="1.0" xmlns="http://www.w3.org/2000/svg"
 width="256.000000pt" height="256.000000pt" viewBox="0 0 256.000000 256.000000"
 preserveAspectRatio="xMidYMid meet">
<metadata>
Created by potrace 1.14, written by Peter Selinger 2001-2017
</metadata>
<g transform="translate(0.000000,256.000000) scale(0.100000,-0.100000)"
fill="#000000" stroke="none">
<path d="M1056 2378 c-254 -42 -457 -175 -599 -391 -31 -47 -57 -91 -57 -97 0
-6 -7 -21 -15 -34 -22 -34 -71 -183 -91 -278 -18 -86 -24 -281 -12 -374 7 -58
47 -214 58 -229 4 -5 10 -29 14 -52 10 -80 -39 -150 -145 -203 -79 -40 -113
-86 -113 -154 -1 -98 71 -158 207 -170 86 -8 98 -14 189 -101 129 -124 205
-169 347 -204 115 -28 275 -24 376 10 59 20 187 94 205 119 12 16 97 59 125
63 17 2 77 -9 135 -25 123 -34 222 -39 290 -14 24 9 74 39 111 65 91 67 97 69
170 75 102 8 129 17 169 55 64 60 72 152 21 217 -12 15 -51 47 -86 71 -76 51
-114 98 -131 162 -15 59 -11 100 20 221 32 120 43 217 41 339 -6 267 -88 473
-255 640 -237 236 -618 349 -974 289z"/>
</g>
</svg>
